<?xml version="1.0" encoding="utf-8"?>
<!-- Generator: Adobe Illustrator 18.0.0, SVG Export Plug-In . SVG Version: 6.00 Build 0)  -->
<!DOCTYPE svg PUBLIC "-//W3C//DTD SVG 1.1//EN" "http://www.w3.org/Graphics/SVG/1.1/DTD/svg11.dtd">
<svg version="1.1" id="Camada_1" xmlns="http://www.w3.org/2000/svg" xmlns:xlink="http://www.w3.org/1999/xlink" x="0px" y="0px"
	 viewBox="0 0 151 54" enable-background="new 0 0 151 54" xml:space="preserve">
<g id="Camada_1">
	<g>
		<g>
			<g>
				<path fill-rule="evenodd" clip-rule="evenodd" fill="#F6B7B6" d="M124,14.5L10.8,15.3l133.9,32.2L124,14.5z"/>
			</g>
		</g>
		<path fill-rule="evenodd" clip-rule="evenodd" fill="#E52520" d="M140.4,0L0,0.9L151,54L140.4,0z"/>
		<g>
			<path fill="#FFFFFF" d="M81.9,23l-4.4-12.8h1.9l2.1,6.3c0.6,1.7,1.1,3.3,1.4,4.8h0c0.4-1.5,0.9-3.1,1.5-4.8l2.3-6.3h1.9L83.8,23
				H81.9z"/>
			<path fill="#FFFFFF" d="M100,16.5c0,4.4-2.8,6.7-6.3,6.7c-3.6,0-6.1-2.6-6.1-6.5c0-4.1,2.7-6.7,6.3-6.7
				C97.6,10,100,12.7,100,16.5z M89.5,16.7c0,2.7,1.6,5.2,4.3,5.2c2.8,0,4.3-2.4,4.3-5.3c0-2.5-1.4-5.2-4.3-5.2
				C91,11.3,89.5,13.9,89.5,16.7z"/>
			<path fill="#FFFFFF" d="M100.6,10.2h1.7v11.4h5.8V23h-7.5V10.2z"/>
			<path fill="#FFFFFF" d="M109.3,11.6h-4.1v-1.4h10v1.4H111V23h-1.8V11.6z"/>
			<path fill="#FFFFFF" d="M115.7,19l-1.4,4h-1.8l4.6-12.8h2.1l4.6,12.8H122l-1.4-4H115.7z M120.2,17.7l-1.3-3.7
				c-0.3-0.8-0.5-1.6-0.7-2.3h0c-0.2,0.8-0.4,1.5-0.7,2.3l-1.3,3.7H120.2z"/>
			<path fill="#FFFFFF" d="M124.2,10.4c0.9-0.2,2.1-0.3,3.3-0.3c1.9,0,3.1,0.3,3.9,1c0.7,0.6,1.1,1.4,1.1,2.4c0,1.7-1.1,2.8-2.5,3.3
				v0.1c1,0.3,1.7,1.3,2,2.6c0.4,1.8,0.8,3,1,3.5h-1.8c-0.2-0.4-0.5-1.5-0.9-3.1c-0.4-1.8-1.1-2.4-2.7-2.5h-1.6V23h-1.7V10.4z
				 M125.9,16.2h1.8c1.9,0,3-1,3-2.4c0-1.7-1.3-2.4-3.1-2.4c-0.8,0-1.4,0.1-1.7,0.2V16.2z"/>
		</g>
	</g>
</g>
</svg>
