<?xml version="1.0" encoding="utf-8"?>
<!-- Generator: Adobe Illustrator 18.0.0, SVG Export Plug-In . SVG Version: 6.00 Build 0)  -->
<!DOCTYPE svg PUBLIC "-//W3C//DTD SVG 1.1//EN" "http://www.w3.org/Graphics/SVG/1.1/DTD/svg11.dtd">
<svg version="1.1" id="Camada_1" xmlns="http://www.w3.org/2000/svg" xmlns:xlink="http://www.w3.org/1999/xlink" x="0px" y="0px"
	 viewBox="0 0 99.6 91.2" enable-background="new 0 0 99.6 91.2" xml:space="preserve">
<g>
	<g>
		<path fill="#383838" d="M33.3,45.3c-0.4-1.6-0.7-3.3-1.1-4.9h1.1c0.2,0.9,0.4,1.8,0.5,2.6s0.4,1.8,0.5,2.7
			c0.1,0.6,0.2,1.1,0.3,1.7c0.1,0.6,0.2,1.1,0.3,1.7h0.1c0.1-0.4,0.4-0.9,0.6-1.5c0.3-0.6,0.6-1.3,0.9-2l2.4-5.5l1,0.4
			c-0.1,0.3-0.3,0.7-0.6,1.2c-0.2,0.5-0.5,1.1-0.8,1.7s-0.6,1.3-0.9,1.9c-0.3,0.7-0.6,1.3-0.9,1.9s-0.5,1.2-0.8,1.7
			s-0.4,0.9-0.6,1.2h-1.3C34.1,48.5,33.7,46.9,33.3,45.3z"/>
		<path fill="#383838" d="M44.1,40.2c0.6,0,1.2,0.1,1.6,0.3c0.4,0.2,0.8,0.5,1.1,0.9c0.3,0.4,0.5,0.8,0.6,1.2c0.1,0.5,0.2,1,0.2,1.5
			c0,0.6-0.1,1.3-0.2,2s-0.4,1.4-0.7,2c-0.4,0.6-0.8,1.1-1.4,1.5c-0.6,0.4-1.3,0.6-2.3,0.6c-0.7,0-1.2-0.1-1.6-0.3s-0.8-0.5-1-0.8
			c-0.3-0.3-0.5-0.7-0.6-1.2c-0.1-0.5-0.2-0.9-0.2-1.5c0-0.7,0.1-1.4,0.2-2.2s0.4-1.4,0.8-2c0.4-0.6,0.8-1.1,1.4-1.5
			S43.2,40.2,44.1,40.2z M44.1,41.1c-0.7,0-1.3,0.2-1.7,0.6c-0.5,0.4-0.8,0.8-1.1,1.4c-0.3,0.5-0.5,1.1-0.6,1.8s-0.2,1.2-0.2,1.8
			c0,0.4,0,0.7,0.1,1.1s0.2,0.6,0.4,0.9s0.4,0.5,0.7,0.6s0.7,0.2,1.2,0.2c0.7,0,1.3-0.2,1.7-0.6c0.4-0.4,0.8-0.8,1-1.4
			c0.2-0.5,0.4-1.1,0.5-1.7c0.1-0.6,0.1-1.1,0.1-1.6c0-0.4,0-0.8-0.1-1.1c-0.1-0.4-0.2-0.7-0.4-1c-0.2-0.3-0.4-0.5-0.7-0.7
			S44.5,41.1,44.1,41.1z"/>
		<path fill="#383838" d="M50.9,35.7c0,0.2-0.1,0.5-0.1,0.9c0,0.4-0.1,1-0.2,1.6s-0.2,1.3-0.3,2c-0.1,0.7-0.2,1.5-0.3,2.2
			c-0.1,0.8-0.2,1.5-0.3,2.2c-0.1,0.7-0.2,1.4-0.3,2s-0.1,1.1-0.2,1.5c-0.1,0.4-0.1,0.7-0.1,0.9l1.3,0l0.1,0.8
			c-0.3,0.1-0.5,0.2-0.8,0.3s-0.5,0.1-0.7,0.1c-0.3,0-0.5-0.1-0.7-0.2c-0.1-0.1-0.2-0.3-0.2-0.6c0-0.1,0-0.1,0-0.2s0-0.2,0-0.3
			l1.6-13.3H50.9z"/>
		<path fill="#383838" d="M53.2,47.7c0,0.1,0,0.2,0,0.2c0,0.1,0,0.2,0,0.2c0,0.3,0.1,0.6,0.2,0.8c0.1,0.2,0.5,0.3,0.9,0.3
			c0.2,0,0.5,0,0.8-0.1s0.7-0.1,1.1-0.2l0.2,0.7c-0.4,0.1-0.8,0.3-1.2,0.4s-0.9,0.1-1.2,0.1c-0.6,0-1.1-0.1-1.4-0.4
			c-0.3-0.3-0.5-0.7-0.5-1.4c0-0.1,0-0.1,0-0.2c0-0.1,0-0.1,0-0.2l0.8-6.8h-1.4l0.1-0.6c0.2-0.1,0.5-0.1,0.7-0.1
			c0.2,0,0.5-0.1,0.7-0.1c0.1-0.3,0.2-0.7,0.3-1c0.1-0.3,0.2-0.6,0.3-1l0.7-0.1c0,0.1,0,0.3,0,0.5c0,0.2,0,0.4-0.1,0.6
			c0,0.2-0.1,0.4-0.1,0.6c0,0.2,0,0.4-0.1,0.5h2.8l-0.1,0.8h-2.8L53.2,47.7z"/>
		<path fill="#383838" d="M61.6,40.2c0.4,0,0.9,0,1.3,0.1c0.4,0.1,0.8,0.2,1.2,0.4l0.2-0.5l0.8,0c0,0.2-0.1,0.6-0.1,1
			c-0.1,0.4-0.1,0.9-0.2,1.5s-0.2,1.2-0.2,1.8c-0.1,0.6-0.2,1.2-0.2,1.8s-0.1,1.1-0.2,1.6c-0.1,0.5-0.1,0.9-0.1,1.2l1.2,0l0.1,0.7
			c-0.3,0.1-0.6,0.2-0.8,0.3c-0.3,0-0.5,0.1-0.6,0.1c-0.3,0-0.5-0.1-0.7-0.2c-0.1-0.1-0.2-0.3-0.2-0.6c0-0.1,0-0.1,0-0.3
			c0-0.1,0-0.3,0-0.4l0,0c-0.6,0.5-1.2,0.9-1.8,1.1c-0.6,0.3-1.2,0.4-1.7,0.4c-0.8,0-1.4-0.3-1.9-0.9c-0.5-0.6-0.8-1.4-0.8-2.6
			c0-0.8,0.1-1.5,0.3-2.3c0.2-0.8,0.5-1.5,0.9-2.1c0.4-0.6,0.9-1.1,1.5-1.5S60.8,40.2,61.6,40.2z M61.6,41.2c-0.5,0-1,0.1-1.4,0.4
			c-0.4,0.2-0.8,0.6-1.2,1.1c-0.3,0.5-0.6,1-0.8,1.7c-0.2,0.7-0.3,1.4-0.3,2.3c0,1,0.2,1.7,0.6,2.1c0.4,0.4,0.8,0.6,1.3,0.6
			c0.5,0,1.1-0.2,1.7-0.5c0.6-0.3,1.1-0.7,1.6-1.1l0.8-6.1c-0.4-0.2-0.8-0.3-1.2-0.4C62.3,41.2,61.9,41.2,61.6,41.2z"/>
		<path fill="#383838" d="M67.8,41.3c0,0.3-0.1,0.5-0.1,0.9h0.1c0.4-0.6,0.8-1.1,1.1-1.4c0.4-0.3,0.8-0.5,1.2-0.5
			c0.2,0,0.5,0,0.7,0.1c0.2,0.1,0.4,0.3,0.6,0.5L71,41.6c-0.3-0.1-0.6-0.2-0.9-0.2c-0.3,0-0.6,0.1-0.8,0.2c-0.3,0.1-0.5,0.3-0.7,0.5
			c-0.2,0.2-0.4,0.4-0.5,0.7c-0.2,0.2-0.3,0.5-0.4,0.8c0,0.2-0.1,0.4-0.1,0.8s-0.1,0.7-0.1,1.2c-0.1,0.4-0.1,0.9-0.2,1.4
			c-0.1,0.5-0.1,0.9-0.2,1.4c-0.1,0.4-0.1,0.8-0.2,1.2s-0.1,0.6-0.1,0.8h-1.1c0.2-1.5,0.4-3.1,0.6-4.8c0.2-1.6,0.4-3.3,0.6-5h1
			C67.9,40.7,67.8,41,67.8,41.3z"/>
	</g>
</g>
<path fill="none" stroke="#E42620" stroke-width="3" stroke-miterlimit="10" d="M50,89.2H31.8c-3.4,0-6.6-1.8-8.3-4.8L3.7,50.2
	c-1.7-3-1.7-6.6,0-9.5L23.5,6.4c1.7-3,4.9-4.8,8.3-4.8h18.6"/>
<path fill="none" stroke="#E42620" stroke-width="2" stroke-miterlimit="10" d="M73.4,23.6h10.5c1.7,0,3.3,0.9,4.1,2.4L98,43.5
	c0.9,1.5,0.9,3.4,0,4.9l-9.9,17.5c-0.9,1.5-2.4,2.4-4.1,2.4H73.2"/>
</svg>
