<?xml version="1.0" encoding="utf-8"?>
<!-- Generator: Adobe Illustrator 18.0.0, SVG Export Plug-In . SVG Version: 6.00 Build 0)  -->
<!DOCTYPE svg PUBLIC "-//W3C//DTD SVG 1.1//EN" "http://www.w3.org/Graphics/SVG/1.1/DTD/svg11.dtd">
<svg version="1.1" id="Camada_1" xmlns="http://www.w3.org/2000/svg" xmlns:xlink="http://www.w3.org/1999/xlink" x="0px" y="0px"
	 viewBox="0 0 99.6 91.2" enable-background="new 0 0 99.6 91.2" xml:space="preserve">
<g>
	<g>
		<path fill="#383838" d="M27.6,40.5c0.4,0,0.9,0,1.3,0.1c0.4,0.1,0.8,0.2,1.2,0.4l0.2-0.5l0.8,0c0,0.2-0.1,0.6-0.1,1
			s-0.1,0.9-0.2,1.5s-0.1,1.2-0.2,1.8c-0.1,0.6-0.2,1.2-0.2,1.8s-0.1,1.1-0.2,1.6c-0.1,0.5-0.1,0.9-0.1,1.2l1.2,0l0.1,0.7
			c-0.3,0.1-0.6,0.2-0.8,0.3c-0.3,0-0.5,0.1-0.6,0.1c-0.3,0-0.5-0.1-0.7-0.2c-0.1-0.1-0.2-0.3-0.2-0.6c0-0.1,0-0.1,0-0.3
			c0-0.1,0-0.3,0-0.4l0,0c-0.6,0.5-1.2,0.9-1.8,1.1c-0.6,0.3-1.2,0.4-1.7,0.4c-0.8,0-1.4-0.3-1.9-0.9c-0.5-0.6-0.8-1.4-0.8-2.6
			c0-0.8,0.1-1.5,0.3-2.3c0.2-0.8,0.5-1.5,0.9-2.1c0.4-0.6,0.9-1.1,1.5-1.5S26.8,40.5,27.6,40.5z M27.6,41.5c-0.5,0-1,0.1-1.4,0.4
			s-0.8,0.6-1.2,1.1c-0.3,0.5-0.6,1-0.8,1.7c-0.2,0.7-0.3,1.4-0.3,2.3c0,1,0.2,1.7,0.6,2.1c0.4,0.4,0.8,0.6,1.3,0.6
			c0.5,0,1.1-0.2,1.7-0.5c0.6-0.3,1.1-0.7,1.6-1.1l0.8-6.1c-0.4-0.2-0.8-0.3-1.2-0.4C28.3,41.5,27.9,41.5,27.6,41.5z"/>
		<path fill="#383838" d="M32.5,45.6c-0.4-1.6-0.7-3.3-1.1-4.9h1.1c0.2,0.9,0.4,1.8,0.6,2.6c0.2,0.9,0.4,1.8,0.5,2.7
			c0.1,0.6,0.2,1.1,0.3,1.7c0.1,0.6,0.2,1.1,0.3,1.7h0.1c0.1-0.4,0.4-0.9,0.6-1.5c0.3-0.6,0.6-1.3,0.9-2l2.4-5.5l1,0.4
			C39.2,41,39,41.4,38.8,42c-0.2,0.5-0.5,1.1-0.8,1.7c-0.3,0.6-0.6,1.3-0.9,1.9c-0.3,0.7-0.6,1.3-0.9,1.9c-0.3,0.6-0.5,1.2-0.8,1.7
			s-0.4,0.9-0.6,1.2h-1.3C33.3,48.8,32.9,47.2,32.5,45.6z"/>
		<path fill="#383838" d="M43.7,40.5c0.4,0,0.9,0,1.3,0.1c0.4,0.1,0.8,0.2,1.2,0.4l0.2-0.5l0.8,0c0,0.2-0.1,0.6-0.1,1
			s-0.1,0.9-0.2,1.5s-0.1,1.2-0.2,1.8c-0.1,0.6-0.2,1.2-0.2,1.8s-0.1,1.1-0.2,1.6c-0.1,0.5-0.1,0.9-0.1,1.2l1.2,0l0.1,0.7
			c-0.3,0.1-0.6,0.2-0.8,0.3c-0.3,0-0.5,0.1-0.6,0.1c-0.3,0-0.5-0.1-0.7-0.2C45,50.2,45,50,45,49.8c0-0.1,0-0.1,0-0.3
			c0-0.1,0-0.3,0-0.4l0,0c-0.6,0.5-1.2,0.9-1.8,1.1c-0.6,0.3-1.2,0.4-1.7,0.4c-0.8,0-1.4-0.3-1.9-0.9c-0.5-0.6-0.8-1.4-0.8-2.6
			c0-0.8,0.1-1.5,0.3-2.3c0.2-0.8,0.5-1.5,0.9-2.1c0.4-0.6,0.9-1.1,1.5-1.5S42.8,40.5,43.7,40.5z M43.6,41.5c-0.5,0-1,0.1-1.4,0.4
			s-0.8,0.6-1.2,1.1c-0.3,0.5-0.6,1-0.8,1.7c-0.2,0.7-0.3,1.4-0.3,2.3c0,1,0.2,1.7,0.6,2.1c0.4,0.4,0.8,0.6,1.3,0.6
			c0.5,0,1.1-0.2,1.7-0.5c0.6-0.3,1.1-0.7,1.6-1.1l0.8-6.1c-0.4-0.2-0.8-0.3-1.2-0.4C44.4,41.5,44,41.5,43.6,41.5z"/>
		<path fill="#383838" d="M53.7,50.4l0.8-7c0-0.1,0-0.2,0-0.3s0-0.2,0-0.3c0-0.2,0-0.4-0.1-0.5c-0.1-0.3-0.2-0.5-0.4-0.7
			c-0.2-0.1-0.5-0.2-1-0.2c-0.5,0-1.1,0.2-1.7,0.5c-0.6,0.3-1.2,0.8-1.8,1.3l-0.9,7.2h-1.1c0-0.3,0.1-0.7,0.1-1.2
			c0.1-0.5,0.1-1.1,0.2-1.7c0.1-0.6,0.2-1.3,0.3-1.9c0.1-0.7,0.2-1.3,0.2-1.9s0.1-1.2,0.2-1.7s0.1-0.9,0.1-1.2h1
			c0,0.2-0.1,0.5-0.1,0.8c0,0.3-0.1,0.5-0.1,0.7c0,0,0.1,0.1,0.1,0c1.4-1.1,2.7-1.7,3.8-1.7c0.4,0,0.8,0.1,1.1,0.2
			c0.3,0.1,0.5,0.3,0.7,0.4c0.2,0.2,0.3,0.4,0.4,0.7c0.1,0.3,0.1,0.5,0.1,0.8c0,0.1,0,0.2,0,0.3c0,0.1,0,0.2,0,0.3l-0.8,7.2H53.7z"
			/>
		<path fill="#383838" d="M59.8,49.7c0.5,0,1-0.1,1.4-0.2c0.4-0.1,0.9-0.3,1.5-0.5l0.3,0.7c-0.4,0.2-0.8,0.4-1.3,0.5s-1,0.2-1.6,0.3
			L59,51.8c0.6,0,1.1,0.1,1.5,0.3c0.4,0.2,0.6,0.5,0.6,1c0,0.3-0.1,0.5-0.2,0.8s-0.4,0.5-0.7,0.7c-0.3,0.2-0.7,0.4-1.1,0.5
			c-0.5,0.1-1,0.2-1.6,0.2l0.1-0.6c0.9-0.1,1.5-0.2,1.9-0.5c0.4-0.3,0.6-0.6,0.6-0.9c0-0.2-0.1-0.3-0.2-0.4
			c-0.1-0.1-0.2-0.2-0.4-0.2c-0.2-0.1-0.4-0.1-0.6-0.1s-0.5,0-0.7,0L58,52.1c0.2-0.3,0.5-0.5,0.7-0.8c0.2-0.3,0.5-0.5,0.7-0.8
			c-0.6,0-1-0.1-1.4-0.3c-0.4-0.2-0.7-0.4-0.9-0.7c-0.2-0.3-0.4-0.7-0.5-1.1s-0.2-0.9-0.2-1.4c0-0.6,0.1-1.2,0.2-2
			c0.1-0.7,0.4-1.4,0.7-2.1c0.3-0.7,0.8-1.2,1.5-1.7s1.5-0.7,2.5-0.7c1,0,1.9,0.2,2.6,0.6l-0.4,0.7c-0.5-0.2-1-0.4-1.4-0.4
			c-0.4,0-0.7-0.1-1-0.1c-0.6,0-1.1,0.1-1.6,0.4c-0.5,0.3-0.8,0.7-1.2,1.2c-0.3,0.5-0.5,1.1-0.7,1.7c-0.2,0.7-0.2,1.4-0.2,2.1
			c0,0.4,0,0.8,0.1,1.1c0.1,0.3,0.2,0.6,0.4,0.9c0.2,0.3,0.4,0.5,0.7,0.6C58.9,49.6,59.3,49.7,59.8,49.7z"/>
		<path fill="#383838" d="M68.5,40.5c0.4,0,0.9,0,1.3,0.1c0.4,0.1,0.8,0.2,1.2,0.4l0.2-0.5l0.8,0c0,0.2-0.1,0.6-0.1,1
			s-0.1,0.9-0.2,1.5s-0.1,1.2-0.2,1.8c-0.1,0.6-0.2,1.2-0.2,1.8S71,47.9,71,48.4c-0.1,0.5-0.1,0.9-0.1,1.2l1.2,0l0.1,0.7
			c-0.3,0.1-0.6,0.2-0.8,0.3c-0.3,0-0.5,0.1-0.6,0.1c-0.3,0-0.5-0.1-0.7-0.2c-0.1-0.1-0.2-0.3-0.2-0.6c0-0.1,0-0.1,0-0.3
			c0-0.1,0-0.3,0-0.4l0,0c-0.6,0.5-1.2,0.9-1.8,1.1c-0.6,0.3-1.2,0.4-1.7,0.4c-0.8,0-1.4-0.3-1.9-0.9c-0.5-0.6-0.8-1.4-0.8-2.6
			c0-0.8,0.1-1.5,0.3-2.3c0.2-0.8,0.5-1.5,0.9-2.1c0.4-0.6,0.9-1.1,1.5-1.5S67.7,40.5,68.5,40.5z M68.5,41.5c-0.5,0-1,0.1-1.4,0.4
			s-0.8,0.6-1.2,1.1c-0.3,0.5-0.6,1-0.8,1.7c-0.2,0.7-0.3,1.4-0.3,2.3c0,1,0.2,1.7,0.6,2.1c0.4,0.4,0.8,0.6,1.3,0.6
			c0.5,0,1.1-0.2,1.7-0.5c0.6-0.3,1.1-0.7,1.6-1.1l0.8-6.1c-0.4-0.2-0.8-0.3-1.2-0.4C69.2,41.5,68.8,41.5,68.5,41.5z"/>
		<path fill="#383838" d="M74.7,41.6c0,0.3-0.1,0.5-0.1,0.9h0.1c0.4-0.6,0.8-1.1,1.1-1.4s0.8-0.5,1.2-0.5c0.2,0,0.5,0,0.7,0.1
			c0.2,0.1,0.4,0.3,0.6,0.5l-0.4,0.7c-0.3-0.1-0.6-0.2-0.9-0.2c-0.3,0-0.6,0.1-0.8,0.2s-0.5,0.3-0.7,0.5c-0.2,0.2-0.4,0.4-0.5,0.7
			c-0.2,0.2-0.3,0.5-0.4,0.8c0,0.2-0.1,0.4-0.1,0.8s-0.1,0.7-0.1,1.2c-0.1,0.4-0.1,0.9-0.2,1.4s-0.1,0.9-0.2,1.4
			c-0.1,0.4-0.1,0.8-0.2,1.2s-0.1,0.6-0.1,0.8h-1.1c0.2-1.5,0.4-3.1,0.6-4.8c0.2-1.6,0.4-3.3,0.6-5h1C74.8,41,74.7,41.3,74.7,41.6z"
			/>
	</g>
</g>
<path fill="none" stroke="#E42620" stroke-width="3" stroke-miterlimit="10" d="M50.5,1.6h18.2c3.4,0,6.6,1.8,8.3,4.8l19.8,34.3
	c1.7,3,1.7,6.6,0,9.5L77,84.4c-1.7,3-4.9,4.8-8.3,4.8H50.1"/>
<path fill="none" stroke="#E42620" stroke-width="2" stroke-miterlimit="10" d="M26.3,67H15.8c-1.7,0-3.3-0.9-4.1-2.4L1.7,47.1
	c-0.9-1.5-0.9-3.4,0-4.9l9.9-17.5c0.9-1.5,2.4-2.4,4.1-2.4h10.7"/>
</svg>
