<?xml version="1.0" encoding="utf-8"?>
<!-- Generator: Adobe Illustrator 18.0.0, SVG Export Plug-In . SVG Version: 6.00 Build 0)  -->
<!DOCTYPE svg PUBLIC "-//W3C//DTD SVG 1.1//EN" "http://www.w3.org/Graphics/SVG/1.1/DTD/svg11.dtd">
<svg version="1.1" id="Camada_1" xmlns="http://www.w3.org/2000/svg" xmlns:xlink="http://www.w3.org/1999/xlink" x="0px" y="0px"
	 viewBox="0 0 166.9 81" enable-background="new 0 0 166.9 81" xml:space="preserve">
<path fill="none" stroke="#E42620" stroke-width="2" stroke-miterlimit="10" d="M103,0.8h37.5c0.7,0,1.4,0.2,2,0.5l0.5,0.3
	c2.9,1.5,5.5,3.7,7.6,6.3v0c0,0,0,0,0,0l15.2,26.5"/>
<path fill="none" stroke="#E42620" stroke-width="2" stroke-miterlimit="10" d="M78.9,80.1H23c-0.7,0-1.4-0.2-2-0.5l-0.5-0.3
	c-2.9-1.5-5.5-3.7-7.6-6.3l0,0c0,0,0,0,0,0l-11.6-20"/>
<g>
	<g>
		<path fill="#E63712" d="M37,53.1l3.3-26h15l-0.2,1.7H42.3l-1.2,9.7h11l-0.2,1.7h-11l-1.6,12.7H37z"/>
		<path fill="#E63712" d="M64.9,26.7c1.8,0,3.2,0.3,4.4,0.8c1.2,0.6,2.1,1.3,2.9,2.3c0.7,1,1.2,2.1,1.5,3.4c0.3,1.3,0.4,2.6,0.4,4.1
			c0,2.2-0.3,4.3-0.8,6.2c-0.5,2-1.3,3.7-2.4,5.1s-2.3,2.6-3.9,3.5c-1.5,0.8-3.3,1.3-5.3,1.3c-1.7,0-3.2-0.2-4.4-0.7
			c-1.2-0.5-2.2-1.1-2.9-2c-0.8-0.9-1.3-1.9-1.7-3.2c-0.3-1.3-0.5-2.7-0.5-4.2c0-2,0.2-4,0.7-6c0.4-2,1.2-3.7,2.2-5.3
			s2.3-2.8,3.9-3.8C60.6,27.2,62.6,26.7,64.9,26.7z M64.9,28.5c-2,0-3.7,0.5-5,1.4c-1.3,0.9-2.4,2.1-3.2,3.5c-0.8,1.4-1.4,3-1.7,4.8
			c-0.3,1.7-0.5,3.5-0.5,5.1c0,2.8,0.6,4.8,1.7,6.3c1.1,1.4,3,2.1,5.5,2.1c1.8,0,3.3-0.4,4.6-1.2s2.3-1.9,3.1-3.3
			c0.8-1.4,1.4-2.9,1.8-4.6c0.4-1.7,0.6-3.5,0.6-5.2c0-1.1-0.1-2.2-0.3-3.3c-0.2-1.1-0.5-2-1-2.8c-0.5-0.8-1.2-1.5-2.1-2
			C67.5,28.7,66.3,28.5,64.9,28.5z"/>
		<path fill="#E63712" d="M79.2,53.1L82.3,29h-8.5l0.2-1.8h19.3L93,29h-8.5l-3.1,24.2H79.2z"/>
		<path fill="#E63712" d="M101.9,26.7c1.8,0,3.2,0.3,4.4,0.8c1.2,0.6,2.1,1.3,2.9,2.3c0.7,1,1.2,2.1,1.5,3.4
			c0.3,1.3,0.4,2.6,0.4,4.1c0,2.2-0.3,4.3-0.8,6.2c-0.5,2-1.3,3.7-2.4,5.1s-2.3,2.6-3.9,3.5c-1.5,0.8-3.3,1.3-5.3,1.3
			c-1.7,0-3.2-0.2-4.4-0.7c-1.2-0.5-2.2-1.1-2.9-2c-0.8-0.9-1.3-1.9-1.7-3.2c-0.3-1.3-0.5-2.7-0.5-4.2c0-2,0.2-4,0.7-6
			c0.4-2,1.2-3.7,2.2-5.3s2.3-2.8,3.9-3.8C97.6,27.2,99.6,26.7,101.9,26.7z M101.9,28.5c-2,0-3.7,0.5-5,1.4
			c-1.3,0.9-2.4,2.1-3.2,3.5c-0.8,1.4-1.4,3-1.7,4.8c-0.3,1.7-0.5,3.5-0.5,5.1c0,2.8,0.6,4.8,1.7,6.3c1.1,1.4,3,2.1,5.5,2.1
			c1.8,0,3.3-0.4,4.6-1.2s2.3-1.9,3.1-3.3c0.8-1.4,1.4-2.9,1.8-4.6c0.4-1.7,0.6-3.5,0.6-5.2c0-1.1-0.1-2.2-0.3-3.3
			c-0.2-1.1-0.5-2-1-2.8c-0.5-0.8-1.2-1.5-2.1-2C104.4,28.7,103.3,28.5,101.9,28.5z"/>
		<path fill="#E63712" d="M120.9,26.7c1,0,2.1,0.1,3.3,0.3c1.2,0.2,2.4,0.5,3.5,1.1l-0.9,1.7c-1.2-0.5-2.3-0.8-3.3-1
			c-1-0.1-1.9-0.2-2.9-0.2c-0.8,0-1.6,0.1-2.4,0.3c-0.8,0.2-1.5,0.5-2.1,0.9c-0.6,0.4-1.1,0.9-1.5,1.6c-0.4,0.6-0.6,1.4-0.6,2.4
			c0,0.8,0.1,1.4,0.4,1.9c0.3,0.5,0.7,1,1.2,1.3c0.5,0.4,1.1,0.7,1.9,0.9c0.7,0.3,1.5,0.5,2.4,0.8c0.9,0.3,1.8,0.6,2.7,0.9
			c0.9,0.3,1.7,0.7,2.5,1.2c0.7,0.5,1.3,1.1,1.8,1.9c0.5,0.8,0.7,1.7,0.7,2.9c0,1.5-0.3,2.7-0.9,3.7c-0.6,1-1.4,1.8-2.3,2.4
			c-1,0.6-2.1,1-3.3,1.3c-1.2,0.3-2.5,0.4-3.8,0.4c-1.3,0-2.7-0.1-4.1-0.4c-1.4-0.3-2.7-0.8-3.9-1.5l0.9-1.7
			c1.4,0.7,2.7,1.2,3.9,1.4c1.2,0.2,2.3,0.3,3.4,0.3c1,0,1.9-0.1,2.9-0.3c0.9-0.2,1.8-0.5,2.5-0.9s1.3-1,1.8-1.7
			c0.5-0.7,0.7-1.6,0.7-2.7c0-0.8-0.1-1.5-0.4-2c-0.3-0.6-0.7-1-1.2-1.4c-0.5-0.4-1.1-0.7-1.8-1c-0.7-0.3-1.5-0.6-2.4-0.9
			c-1.1-0.3-2.1-0.6-3-1c-0.9-0.4-1.7-0.8-2.4-1.3c-0.7-0.5-1.2-1.1-1.6-1.8c-0.4-0.7-0.6-1.6-0.6-2.6c0-1.2,0.2-2.3,0.7-3.2
			c0.5-0.9,1.2-1.7,2-2.3c0.8-0.6,1.8-1,2.9-1.3C118.4,26.9,119.6,26.7,120.9,26.7z"/>
	</g>
</g>
</svg>
