<?xml version="1.0" encoding="utf-8"?>
<!-- Generator: Adobe Illustrator 18.0.0, SVG Export Plug-In . SVG Version: 6.00 Build 0)  -->
<!DOCTYPE svg PUBLIC "-//W3C//DTD SVG 1.1//EN" "http://www.w3.org/Graphics/SVG/1.1/DTD/svg11.dtd">
<svg version="1.1" id="Camada_1" xmlns="http://www.w3.org/2000/svg" xmlns:xlink="http://www.w3.org/1999/xlink" x="0px" y="0px"
	 viewBox="0 0 37 40" enable-background="new 0 0 37 40" xml:space="preserve">
<path fill="#E52622" d="M37,27.3c0,0.9-0.3,1.9-0.8,2.7c-0.5,0.9-1.2,1.5-2,2l-12.7,7.2c-0.9,0.5-1.9,0.8-3,0.8
	c-1.1,0-2.1-0.3-3-0.8L3.6,32.5c-1.1-0.6-2-1.5-2.6-2.6C0.3,28.7,0,27.5,0,26.3V13.1c0-1.1,0.3-2.2,0.9-3.2c0.6-1,1.4-1.8,2.4-2.4
	L14.8,1c1.1-0.6,2.3-1,3.7-1c1.3,0,2.6,0.4,3.7,1l11.4,6.5c1,0.6,1.9,1.4,2.5,2.5c0.6,1.1,0.9,2.2,0.9,3.4V27.3z"/>
<path fill="#FFFFFF" d="M19,27c-0.8,0-1.5-0.6-1.5-1.4c0-0.8,0.7-1.4,1.5-1.4c0.8,0,1.5,0.6,1.5,1.4C20.5,26.4,19.8,27,19,27z"/>
<path fill="#FFFFFF" d="M11.6,18.5C11,19,10,19,9.4,18.5c-0.6-0.6-0.6-1.5,0-2c0.6-0.6,1.5-0.6,2.1,0C12.2,17,12.2,17.9,11.6,18.5z"
	/>
<path fill="#FFFFFF" d="M15.8,22.5c-0.6,0.6-1.5,0.6-2.1,0c-0.6-0.6-0.6-1.5,0-2c0.6-0.6,1.5-0.6,2.1,0C16.4,21,16.4,22,15.8,22.5z"
	/>
<path fill="#FFFFFF" d="M24.3,20.5c0.6,0.6,0.6,1.5,0,2c-0.6,0.6-1.5,0.6-2.1,0c-0.6-0.6-0.6-1.5,0-2C22.8,19.9,23.7,19.9,24.3,20.5
	z"/>
<path fill="#FFFFFF" d="M28.6,16.4c0.6,0.6,0.6,1.5,0,2C28,19,27,19,26.4,18.5c-0.6-0.6-0.6-1.5,0-2C27,15.9,28,15.9,28.6,16.4z"/>
</svg>
