<?xml version="1.0" encoding="utf-8"?>
<!-- Generator: Adobe Illustrator 18.0.0, SVG Export Plug-In . SVG Version: 6.00 Build 0)  -->
<!DOCTYPE svg PUBLIC "-//W3C//DTD SVG 1.1//EN" "http://www.w3.org/Graphics/SVG/1.1/DTD/svg11.dtd">
<svg version="1.1" id="Camada_1" xmlns="http://www.w3.org/2000/svg" xmlns:xlink="http://www.w3.org/1999/xlink" x="0px" y="0px"
	 viewBox="0 0 17 17" enable-background="new 0 0 17 17" xml:space="preserve">
<path fill="#010102" d="M17,8.3c0,4.6-3.7,8.3-8.3,8.3c-1.5,0-2.8-0.4-4-1L0,17l1.5-4.4c-0.8-1.2-1.2-2.7-1.2-4.3C0.3,3.7,4,0,8.7,0
	C13.3,0,17,3.7,17,8.3z M8.7,1.3c-3.9,0-7,3.1-7,7c0,1.5,0.5,2.9,1.3,4.1l-0.9,2.6l2.7-0.9c1.1,0.7,2.4,1.2,3.9,1.2c3.9,0,7-3.1,7-7
	S12.5,1.3,8.7,1.3z M12.9,10.2c-0.1-0.1-0.2-0.1-0.4-0.2c-0.2-0.1-1.2-0.6-1.4-0.7c-0.2-0.1-0.3-0.1-0.5,0.1
	c-0.1,0.2-0.5,0.7-0.6,0.8c-0.1,0.1-0.2,0.2-0.4,0.1c-0.2-0.1-0.9-0.3-1.6-1C7.3,8.7,6.9,8,6.7,7.8c-0.1-0.2,0-0.3,0.1-0.4
	C6.9,7.3,7,7.2,7.1,7.1c0.1-0.1,0.1-0.2,0.2-0.3c0.1-0.1,0-0.3,0-0.4C7.3,6.3,6.9,5.3,6.7,4.9C6.5,4.4,6.4,4.5,6.2,4.5
	c-0.1,0-0.3,0-0.4,0c-0.1,0-0.4,0.1-0.5,0.3C5.1,5,4.6,5.4,4.6,6.4c0,1,0.7,2,0.8,2.1c0.1,0.1,1.4,2.3,3.5,3.1
	c2.1,0.8,2.1,0.5,2.5,0.5c0.4,0,1.2-0.5,1.4-1C12.9,10.7,12.9,10.3,12.9,10.2z"/>
</svg>
