<?xml version="1.0" encoding="utf-8"?>
<!-- Generator: Adobe Illustrator 18.0.0, SVG Export Plug-In . SVG Version: 6.00 Build 0)  -->
<!DOCTYPE svg PUBLIC "-//W3C//DTD SVG 1.1//EN" "http://www.w3.org/Graphics/SVG/1.1/DTD/svg11.dtd">
<svg version="1.1" id="Camada_1" xmlns="http://www.w3.org/2000/svg" xmlns:xlink="http://www.w3.org/1999/xlink" x="0px" y="0px"
	 viewBox="0 0 49.9 50" enable-background="new 0 0 49.9 50" xml:space="preserve">
<g id="Camada_1">
	<g>
		<g>
			<circle fill="#E5231F" cx="25" cy="25" r="25"/>
		</g>
		<path fill="#FFFFFF" d="M25.4,12.1c-4.7,0-8.5,3.9-8.5,8.6c0,1.9,1.2,5,3.7,9.5c1.8,3.2,3.5,5.8,3.6,5.9l1.3,1.9l1.3-1.9
			c0.1-0.1,1.8-2.8,3.6-5.9c2.5-4.5,3.7-7.6,3.7-9.5C33.9,16,30.1,12.1,25.4,12.1z M25.4,25.1c-2.4,0-4.4-2-4.4-4.5
			c0-2.5,2-4.5,4.4-4.5s4.4,2,4.4,4.5C29.8,23.1,27.8,25.1,25.4,25.1z"/>
	</g>
</g>
</svg>
