<?xml version="1.0" encoding="utf-8"?>
<!-- Generator: Adobe Illustrator 18.0.0, SVG Export Plug-In . SVG Version: 6.00 Build 0)  -->
<!DOCTYPE svg PUBLIC "-//W3C//DTD SVG 1.1//EN" "http://www.w3.org/Graphics/SVG/1.1/DTD/svg11.dtd">
<svg version="1.1" id="Camada_1" xmlns="http://www.w3.org/2000/svg" xmlns:xlink="http://www.w3.org/1999/xlink" x="0px" y="0px"
	 viewBox="0 0 50.2 50" enable-background="new 0 0 50.2 50" xml:space="preserve">
<circle fill="#E5231F" cx="25.1" cy="25" r="25"/>
<path fill="#FFFFFF" d="M21.9,25.6l-9.2,8.1c0.3,0.3,0.8,0.5,1.3,0.5h22.3c0.5,0,0.9-0.2,1.3-0.5l-9.2-8.1l-3.2,2.9L21.9,25.6z"/>
<path fill="#FFFFFF" d="M36.2,15.2H14c-0.5,0-0.9,0.2-1.3,0.5l12.4,10.9l12.4-10.9C37.2,15.4,36.7,15.2,36.2,15.2z"/>
<path fill="#FFFFFF" d="M12.1,32.6l9-7.8l-9-8V32.6z"/>
<path fill="#FFFFFF" d="M38.1,32.6V16.8l-9,8L38.1,32.6z"/>
</svg>
