<?xml version="1.0" encoding="utf-8"?>
<!-- Generator: Adobe Illustrator 18.0.0, SVG Export Plug-In . SVG Version: 6.00 Build 0)  -->
<!DOCTYPE svg PUBLIC "-//W3C//DTD SVG 1.1//EN" "http://www.w3.org/Graphics/SVG/1.1/DTD/svg11.dtd">
<svg version="1.1" id="Camada_1" xmlns="http://www.w3.org/2000/svg" xmlns:xlink="http://www.w3.org/1999/xlink" x="0px" y="0px"
	 viewBox="199.9 390.7 205 39.1" enable-background="new 199.9 390.7 205 39.1" xml:space="preserve">
<path fill="#FF0505" d="M401.5,429.8H203.3c-1.9,0-3.4-1.5-3.4-3.4v-32.3c0-1.9,1.5-3.4,3.4-3.4h198.2c1.9,0,3.4,1.5,3.4,3.4v32.3
	C404.9,428.3,403.4,429.8,401.5,429.8z"/>
<path fill="#FFFFFF" d="M208.7,396.6H229c1.8,0,3,1.4,3,3v20.3c0,1.8-1.4,3-3,3h-20.3c-1.8,0-3-1.4-3-3v-20.3
	C205.7,397.8,206.9,396.6,208.7,396.6z"/>
<path fill="#F90404" d="M227,419.9h-16.2c-1.2,0-2-0.9-2-2v-7.1v-3h20.3v3v7.1C229,419.1,228.1,419.9,227,419.9z"/>
<path fill="#FFFFFF" d="M218.9,401.6c4.5,0,8.2,3.7,8.2,8.2c0,4.5-3.7,8.2-8.2,8.2s-8.2-3.7-8.2-8.2
	C210.7,405.3,214.4,401.6,218.9,401.6z"/>
<path fill="#FF0505" d="M218.9,404.7c2.8,0,5.1,2.2,5.1,5.1c0,2.8-2.2,5.1-5.1,5.1c-2.8,0-5.1-2.2-5.1-5.1
	C213.7,406.9,216,404.7,218.9,404.7z"/>
<path fill="#FF0505" d="M226,399.6h1c1.2,0,2,0.9,2,2v1c0,1.2-0.9,2-2,2h-1c-1.2,0-2-0.9-2-2v-1C223.9,400.6,224.8,399.6,226,399.6z
	"/>
<g>
	<g>
		<g>
			<path fill="#FFFFFF" d="M257.9,398.8c-2.2,0.9-4.5,3.4-5.3,6.6c-0.9,4,3,5.7,3.3,5.2c0.3-0.7-0.7-0.9-0.9-3
				c-0.3-2.8,0.9-5.7,2.5-7.2c0.3-0.2,0.2,0.1,0.2,0.7c0,1.1-0.1,11.3-0.1,13.6c0,2.9-0.1,3.7-0.3,4.7c-0.2,0.9-0.6,1.5-0.3,1.8
				c0.3,0.2,1.7-0.3,2.3-1.3c0.9-1.2,1.1-2.6,1.2-4.3c0.1-2,0.1-5,0.1-6.7c0-1.7,0-6.3,0-9C260.8,399.1,258.9,398.4,257.9,398.8z"/>
			<path fill="#FFFFFF" d="M357.4,414c-0.3,0-0.4,0.3-0.6,0.9c-0.4,1.9-0.8,2.3-1.3,2.3c-0.6,0-1.1-0.9-1.3-2.8
				c-0.1-1.5-0.1-4.1,0-6.8c0-0.6-0.1-1.1-1.7-1.7c-0.7-0.2-1.7-0.6-2.1,0.6c-1.2,3.1-1.9,5.6-2,6.6c0,0-0.1,0.1-0.1-0.1
				c-0.1-0.8-0.2-2.3-0.2-5.4c0-0.6-0.1-1.1-0.8-1.5c-0.4-0.2-1.8-0.8-2.2-0.2c-0.4,0.4-0.9,1.8-1.3,3.2c-0.4,1.2-0.7,2.1-0.7,2.1
				s0-3.3,0-4.6c0-0.4-0.3-0.6-0.4-0.7c-0.2-0.1-1.1-0.3-1.5-0.3s-0.6,0.2-0.6,0.6c0,0-0.1,4.4-0.1,7.4c0,0.1,0,0.2,0,0.4
				c-0.2,1.3-1,3.2-2,3.2c-0.9,0-1.2-0.8-1.2-4.4c0-2.1,0.1-3,0.1-4.5c0-0.9,0-1.5,0-1.8c0-0.4-0.8-0.7-1.1-0.8
				c-0.3-0.1-0.7-0.1-0.9-0.1c-0.3,0-0.6,0.2-0.6,0.6c0,0.2,0,0.4,0,0.4c-0.4-0.7-1.2-1.2-1.8-1.3c-1.3-0.3-2.8,0-3.7,1.3
				c-0.8,1.1-1.3,2.5-1.5,4.4c-0.1,1.3-0.1,2.9,0.1,4c-0.3,1.3-0.9,2-1.5,2c-0.9,0-1.7-1.5-1.5-4.1c0-1.8,0.3-2.9,0.8-4.7
				c0.1-0.7,0-1.1-0.3-1.5s-0.9-0.4-1.9-0.3c-0.7,0.1-1.7,0.3-2.4,0.4c0,0,0-0.2,0.1-0.6c0.2-2-1.9-1.8-2.5-1.1
				c-0.3,0.3-0.7,0.8-0.8,1.7c-0.3,1.5,0.7,2.1,0.7,2.1c-0.3,1.5-1.1,3.4-2,4.8c-0.4,0.8-0.8,1.2-1.2,2c0-0.2,0-0.4,0-0.7
				c0-3.1,0-5.6,0-6.5c0-0.9,0-1.5,0-1.8c0-0.3-0.2-0.4-0.6-0.7c-0.3-0.1-0.8-0.2-1.2-0.2c-0.6,0-0.9,0.2-0.9,0.6c0,0.1,0,0.4,0,0.4
				c-0.4-0.7-1.2-1.2-1.8-1.3c-1.3-0.3-2.8,0-3.7,1.3c-0.8,1.1-1.3,2.9-1.5,4.4c-0.1,1.5-0.1,2.8,0.1,3.7c-0.2,1-0.8,2.2-1.5,2.2
				c-0.9,0-1.3-0.8-1.3-4.4c0-2.1,0.1-3,0.1-4.5c0-0.9,0-1.5,0-1.8c0-0.4-0.8-0.7-1.1-0.8s-0.7-0.1-1-0.1c-0.3,0-0.6,0.3-0.6,0.6
				c0,0.2,0,0.6,0,0.6c-0.4-0.7-1.2-1.2-1.8-1.3c-1.3-0.3-2.8,0-3.7,1.3c-0.7,1.1-1.2,2.2-1.7,4.6c-0.1,0.7-0.1,1.2-0.1,2
				c-0.2,1.8-1.5,3.6-2.5,3.6c-0.6,0-1.1-1.1-1.1-3.5c0-3.2,0.2-7.8,0.2-8.3c0,0,1.2,0,1.5,0c0.6,0,1.1,0,2.1,0
				c0.4,0,0.8-1.5,0.3-1.8c-0.2-0.1-1.7-0.1-2.2-0.1c-0.4,0-1.8-0.1-1.8-0.1s0.1-3.1,0.1-3.3s-0.3-0.4-0.6-0.4
				c-0.4-0.2-0.9-0.3-1.3-0.4c-0.7-0.1-1,0-1.1,0.6c-0.1,0.9-0.1,3.5-0.1,3.5c-0.6,0-2.3-0.1-2.9-0.1c-0.4,0-1,2.1-0.3,2.1
				c0.8,0,2.1,0,3,0.1c0,0,0,4.7,0,6.1c0,0.1,0,0.3,0,0.4c-0.4,2.5-2.2,3.9-2.2,3.9c0.3-1.8-0.3-3-1.8-4c-0.4-0.3-1.5-1.1-2.6-2
				c0,0,0.7-0.7,1.2-2c0.4-0.9,0.4-2-0.6-2.2c-1.7-0.3-3,0.8-3.3,2.1c-0.3,1-0.1,1.8,0.4,2.5l0.1,0.1c-0.3,0.7-0.9,1.8-1.2,2.4
				c-1.1,2.1-2.1,3.6-2.8,3.6c-0.6,0-0.6-1.7-0.6-3.2c0-1.3,0.1-3.3,0.2-5.4c0-0.7-0.3-1-0.9-1.3c-0.3-0.2-1.1-0.7-1.5-0.7
				c-0.7,0-2.5,0.1-4.3,5.2c-0.2,0.7-0.7,1.9-0.7,1.9v-6.2c0-0.1-0.1-0.2-0.2-0.3c-0.2-0.1-1-0.4-1.8-0.4c-0.3,0-0.4,0.1-0.4,0.4
				l-0.1,9.6c0,0.7,0,1.7,0.1,2s0.2,0.7,0.3,0.8c0.1,0.2,0.3,0.3,0.6,0.3c0.2,0,1.7,0.2,1.8-0.3c0.1-0.7,0.1-1.3,0.8-3.9
				c1.1-4,2.6-5.9,3.3-6.6c0.1,0,0.2-0.1,0.2,0.1c0,0.9-0.1,3.1-0.2,5c-0.2,5.1,0.7,5.9,2.1,5.9c1,0,2.4-1,3.9-3.5
				c0.9-1.7,1.9-3.1,2.5-4.3c0.4,0.4,0.9,0.9,1.5,1.3c1.1,1.1,1.7,2.2,1.3,3.2c-0.2,0.8-0.9,1.7-2.3,0.8c-0.3-0.2-0.6-0.4-0.9-0.7
				c-0.2-0.1-0.6-0.2-0.7,0c-0.4,0.3-0.8,0.8-0.9,1.5c-0.1,0.6,0.4,0.9,1,1.1c0.4,0.2,1.7,0.4,2.3,0.4c2.8,0.1,5-1.3,6.4-5
				c0.2,3.2,1.5,5,3.4,5c1.3,0,2.8-1.8,3.3-3.4c0.1,0.7,0.4,1.2,0.8,1.9c1.7,2.5,4.6,2,6.1-0.1c0.4-0.7,0.6-0.9,0.6-0.9
				c0.2,2,1.9,2.6,2.8,2.6c1,0,2.1-0.4,2.9-2.2c0.1,0.2,0.2,0.3,0.2,0.6c1.7,2.5,4.6,2,6.1-0.1c0.1-0.1,0.1-0.2,0.2-0.2v1.2
				c0,0-0.9,0.8-1.3,1.2c-2.3,2.2-4.1,3.7-4.3,5.7c-0.1,2.4,1.9,3.3,3.3,3.4c1.7,0.1,3-0.8,3.7-2c0.7-1,1.2-3.4,1.1-5.6
				c0-0.9,0-2.1,0-3.3c0.8-0.9,1.8-2.2,2.6-3.5c0.9-1.5,2-3.6,2.4-5.3c0,0,0.9,0,1.9,0c0.3,0,0.3,0,0.3,0.2
				c-0.1,0.2-1.1,4.5-0.1,7.4c0.7,2,2.3,2.5,3.2,2.5c1,0,2.1-0.8,2.6-2.1c0.1,0.1,0.1,0.2,0.2,0.3c1.7,2.5,4.6,2,6.1-0.1
				c0.3-0.4,0.6-0.9,0.6-0.9c0.3,2.1,2,2.6,2.9,2.6c0.9,0,1.9-0.3,2.6-2.2c0,0.8,0.1,1.3,0.1,1.7c0,0.1,0.3,0.2,0.4,0.3
				c0.9,0.3,1.8,0.1,2.1,0.1c0.2,0,0.4-0.2,0.4-0.7c0.1-1.2,0-3.3,0.3-4.8c0.6-2.6,1.2-3.5,1.5-4.1c0.1-0.2,0.3-0.3,0.3,0
				c0,0.6,0,2.4,0.3,4.7c0.2,1.8,0.4,2.8,0.6,3.1c0.6,0.9,1.1,0.9,1.8,0.9c0.3,0,1-0.1,1-0.7c0-0.3,0-2.1,0.7-4.6
				c0.4-1.8,1-3.2,1.3-3.7c0.1-0.2,0.1,0,0.1,0c0,1.1-0.1,5,0.3,7.1c0.7,2.8,2.5,3.1,3.1,3.1c1.3,0,2.5-1,2.9-3.7
				C358,414.5,357.9,414,357.4,414z M300.2,412.2c-0.1,1.5-0.3,2.6-0.8,3.5c-0.8,1.7-2.4,2.1-3.2-0.2c-0.6-1.7-0.3-3.9-0.1-5.2
				c0.3-1.9,1.1-3.1,2.4-3C299.7,407.6,300.3,409.2,300.2,412.2z M312.7,412.3c-0.1,1.3-0.4,2.8-0.8,3.5c-0.8,1.7-2.5,2.1-3.2-0.2
				c-0.4-1.7-0.3-3.6-0.1-5c0.3-1.8,1-3.2,2.4-3.2C312.2,407.5,312.8,408.9,312.7,412.3z M313,421.6c0,2.5-0.4,4.7-1.2,5.3
				c-1.1,0.9-2.8,0.2-2.5-1.7c0.3-1.7,1.8-3.2,3.6-5.3C313,420.1,313,420.6,313,421.6z M334.6,412.3c-0.1,1.5-0.4,2.6-0.8,3.5
				c-0.8,1.7-2.4,2.1-3.2-0.2c-0.3-1.2-0.3-3.3-0.1-5.2c0.2-1.9,1-3.1,2.4-3C334.2,407.6,334.7,409.2,334.6,412.3z"/>
		</g>
	</g>
</g>
<line fill="none" x1="-80342.1" y1="548" x2="101922" y2="548"/>
</svg>
