<?xml version="1.0" encoding="utf-8"?>
<!-- Generator: Adobe Illustrator 18.0.0, SVG Export Plug-In . SVG Version: 6.00 Build 0)  -->
<!DOCTYPE svg PUBLIC "-//W3C//DTD SVG 1.1//EN" "http://www.w3.org/Graphics/SVG/1.1/DTD/svg11.dtd">
<svg version="1.1" id="Camada_1" xmlns="http://www.w3.org/2000/svg" xmlns:xlink="http://www.w3.org/1999/xlink" x="0px" y="0px"
	 viewBox="0 0 325.1 255" enable-background="new 0 0 325.1 255" xml:space="preserve">
<g>
	<g>
		<path fill-rule="evenodd" clip-rule="evenodd" fill="#E63712" d="M152.7,39.9c1.4,0,2.3-0.4,3.3-1.2c0.8-0.5,1.6-1.4,2.1-2.1
			l3.4-5.2c0.3-0.7,1-1,0.4-1.8c-0.7,0.3-0.2,0.2-0.7,0.8l-2.4,2.6c-1.9,1.8-4.5,3.4-6.7,1c-0.5-0.5-0.5-0.3-0.8-1.1
			c-0.2-0.6-0.5-0.7-0.7-1.3c-0.1-0.4-0.1-0.9-0.3-1.5c-0.6-1.7-0.7-3.2-0.7-5.2c0-2.8-0.2-6.1,0.7-8.7c0.3-0.9,0.2-1.2,0.7-2
			c0.3-0.5,0.2-0.4,0.4-0.9c0.5-1.3,2.1-2.8,3.2-3.6c1-0.8,2.9-1.5,4.4-1.5c2.1,0,4.1,1.6,5,3.4c1.6,3.5,1.8,5.9,1.7,10.1
			c-0.1,2-0.6,4-0.9,6c-0.2,1.2-0.6,1.5-0.7,2.7l-1.1,4c-0.2,0.5-0.4,0.6-0.5,1.2c-0.1,0.5-0.1,0.9-0.3,1.4
			c-0.2,0.4-0.4,0.7-0.5,1.2c-0.1,0.5-0.1,0.9-0.3,1.4c-1,2-1.6,4.1-2.4,6c-0.2,0.5-0.4,0.6-0.6,1.1l-2,5c-0.2,0.7-0.3,0.5-0.6,1.1
			l-3.6,8.3c-0.3,0.6-0.4,0.5-0.6,1.1c-0.2,0.6-0.1,0.8-0.4,1.3c-4.1,7.3-10.5,24.7-7.6,33.4c-3.1-4,18.7-32.5,24.5-41.1
			c0.9-1.3,1.9-2.8,2.7-4.3c0.3-0.6,0.4-0.6,0.6-1l1.9-3.4c0.2-0.5,0.4-0.7,0.6-1.1l6-13.3c0.2-0.5,0.2-0.8,0.3-1.3
			c0.5-1.6,0.4-0.8,0.8-2.7c0.1-0.7,0.3-0.8,0.5-1.4c0.1-0.3,1-5.9,1-6.2v-3.1c0-2.2-1.5-6.9-2.6-9c-0.2-0.4-0.4-0.5-0.7-1l-2.2-2.7
			c-0.4-0.4-0.5-0.5-0.9-0.8c-0.5-0.4-0.4-0.4-0.8-0.7c-1.7-1-3.5-2.4-5.5-2.8c-1.1-0.2-1.5-0.6-2.7-0.7c-2.1-0.2-4.2-0.1-6.3-0.1
			c-1.6,0.1-4,1-5.2,1.5c-0.4,0.2-0.7,0.2-1.1,0.4l-2.6,1.6c-0.8,0.5-3.2,2.9-3.8,3.7c-0.5,0.7-0.8,1.2-1.3,1.9
			c-2.6,3.5-3.6,8.5-3.3,13.3c0.1,2,0.1,4,0.8,5.8c0.3,1,0.2,1.5,0.7,2.5c0.6,1.1,0.8,2.4,1.5,3.4c0.5,0.9,1.4,2.3,2.1,3
			c0.6,0.6,1,1.2,1.6,1.8C150.9,39.6,151.4,39.9,152.7,39.9L152.7,39.9z"/>
		<path fill-rule="evenodd" clip-rule="evenodd" fill="#E63712" d="M134.2,255c12.7-28.1,59.9-129.1,41.3-157.7
			c-5.8-8.8-12.2-6.7-18.6-11.5c-3.1-2.4-1.2-9,0.9-11.7c0.4-0.5,0.5-0.7,0.2-1.4c-0.6,0.1-1.6,1.5-2,2c-1.7,2-6,9-6.2,11.7
			c-0.1,1-0.2,2.7,0.3,3.6c4.7,7.1,16.2,2.3,21.4,17.9l1,5C175.2,145.5,145.8,216.2,134.2,255L134.2,255z"/>
		<path fill-rule="evenodd" clip-rule="evenodd" fill="#E63712" d="M98.3,66.2c0.8,0.7,1.6,1.3,2.4,2.1l9.7,8.6
			c0.5,0.4,0.8,0.6,1.2,1l2,1.9c2.5,2.4,5.2,4.8,7.6,7.3c0.2,0.2,0.1,0.1,0.3,0.3l2.5,2.5c0.2,0.2,0.2,0.1,0.3,0.3l3.2,3.5l2.8,4.1
			l2.3,4.7c0.2,0.6,0.1,1.4,0.6,1.8c0.4-1.1,0.5-2.2,0-3.3c-0.4-1.1-0.5-2.5-0.8-3.2c-0.5-1-1.3-3.5-1.7-4.4l-1.3-2.5
			c-0.3-0.9-0.4-0.5-0.8-1.3l-5.1-7.1c-0.5-0.8-1-1.4-1.7-2.2l-0.9-1.2c-0.6-1.1-3.6-4.7-4.4-5.7c-1.3-1.6-6.8-8.4-7.1-9.2
			c0.7-0.4,1.4-1.4,2.1-2.1c2.2-2.3,10.2-10.3,12.3-11.9c1.2-1,2.3-2.2,3.5-3.1c0.9-0.7,1.5-1.3,2.3-1.9c0.8-0.7,1.6-1.3,2.5-1.9
			c2.4-1.9,5.7-4.4,8.7-4.5c2.5-0.1,4.9,0.5,6.8,2.1l2.4,2.1c0.2-0.4,0.1-0.7-0.1-1c-0.2-0.5-0.2-0.7-0.4-1.1
			c-0.2-0.5-0.4-0.4-0.6-0.9c-1.2-2.2-2.7-4-4.8-5.5c-0.4-0.3-0.4-0.4-0.9-0.6c-0.5-0.2-0.6-0.1-1.1-0.4c-3.4-1.6-7.4,2-10.3,3.7
			c-0.5,0.3-1.2,0.9-1.8,1.3l-3.4,2.5c-0.6,0.5-1.2,0.9-1.8,1.3l-8.1,6.8c-1.7,1.2-6.7,5.6-7.9,6.8l-9.4,8.5
			C98.6,65.1,98.5,65,98.3,66.2L98.3,66.2z"/>
		<path fill="#E63712" d="M300.7,197c0-4.2,0.1-6.3,0.2-7.5h-4.4c0,1.1,0,4.4,0,6.5v2.5c0,11.1,0.8,14.7,2.9,18.1
			c3.2,5.1,8.2,5.5,10.7,5.5c4.9,0,8.3-1.6,11-4.9c3.4-4.3,3.9-9.9,3.9-18.7v-2.1c0-3.6,0-6.6,0-7.7h-4.4c0.1,1.7,0.3,4.4,0.3,7.6
			v1.6c0,7.2,0,12.8-2.2,16.2c-1.5,2.4-4,4.4-8,4.4c-3.3,0-6.1-1.3-7.9-4.4c-1.8-3.2-2.1-6.6-2.1-14V197L300.7,197z M267,207.9
			c0.4-0.7,5.7-12,6.4-13c0.5,0.7,6.1,11.4,6.6,12.4L267,207.9L267,207.9z M260.4,222.2c0.8-1.6,4.5-10.4,5.1-11.3l15.9-0.6
			c0.5,0.7,5.4,10.1,6.3,11.9l3.9-2.6c-3.1-4.8-14-25.4-18-31.9h-0.1c-1.1,1.7-14.3,27.8-16.8,32.2L260.4,222.2L260.4,222.2z
			 M253.5,218c-1.6,0.4-3.5,0.6-5.3,0.6c-11,0-15.4-5.3-15.4-10.9c0-7.9,8.7-14.2,19.2-15.4l-0.7-3.8c-16.2,2.9-23.1,12.5-23.1,20
			c0,4.2,3.9,13.6,19.5,13.6c2.7,0,4.9-0.2,6.2-0.5L253.5,218L253.5,218z M200.1,207.9c0.4-0.7,5.7-12,6.4-13
			c0.5,0.7,6.1,11.4,6.6,12.4L200.1,207.9L200.1,207.9z M193.5,222.2c0.8-1.6,4.5-10.4,5.1-11.3l15.9-0.6c0.5,0.7,5.4,10.1,6.3,11.9
			l3.9-2.6c-3.1-4.8-14-25.4-18-31.9h-0.1c-1.1,1.7-14.3,27.8-16.8,32.2L193.5,222.2L193.5,222.2z M186.6,218
			c-1.6,0.4-3.5,0.6-5.3,0.6c-11,0-15.4-5.3-15.4-10.9c0-7.9,8.7-14.2,19.2-15.4l-0.7-3.8c-16.2,2.9-23.1,12.5-23.1,20
			c0,4.2,3.9,13.6,19.5,13.6c2.7,0,4.9-0.2,6.2-0.5L186.6,218L186.6,218z"/>
		<path fill="#E63712" d="M143.8,146.9c-7.2,0-11.7-5.6-11.7-12.4c0-7.8,5-14.3,13.2-14.3c6,0,11.4,4.3,11.4,12.5
			C156.7,141.6,150.6,146.9,143.8,146.9L143.8,146.9z M143.4,150.3c13,0,17.8-10.8,17.8-17.9c0-9.9-6.6-15.6-15.2-15.6
			c-11,0-18.2,8.2-18.2,18.4C127.7,143.2,133.4,150.3,143.4,150.3L143.4,150.3z M107.7,120.9c9.3,0.1,10,5.3,10,6.7
			c0,5-4.3,8-10,9.2V120.9L107.7,120.9z M107.8,149.6c-0.1-1-0.1-6-0.1-6.9V140c8.7-1.7,14.5-6.8,14.5-13.1c0-4.9-3.9-7.8-10-8.8
			c-2.8-0.5-6.7-0.6-8.6-0.6c0,0.7,0.1,9.7,0.1,10.8v5c0,3.3-0.1,14.3-0.2,16.3H107.8L107.8,149.6z M76.1,120.5
			c8.7,0.1,10.2,3.2,10.2,5.2c0,4.5-4.6,7.3-6.9,8.5c1.4,1.9,11.7,15.4,12.2,16.1l3.5-2.8c-1.3-1.4-9.5-11.6-10.7-13.2
			c3.8-2.4,6.4-5.4,6.4-9.3c0-3.9-3.4-6.5-9.5-7.2c-3.5-0.4-7.4-0.5-9.5-0.5c0.1,0.9,0.2,10.4,0.2,11.7v3.8c0,1,0.1,15.5-0.1,16.6
			h4.4c-0.1-0.7-0.2-12.3-0.2-14V120.5L76.1,120.5z M45.4,146.9c-7.2,0-11.7-5.6-11.7-12.4c0-7.8,5-14.3,13.2-14.3
			c6,0,11.4,4.3,11.4,12.5C58.3,141.6,52.3,146.9,45.4,146.9L45.4,146.9z M45,150.3c13,0,17.8-10.8,17.8-17.9
			c0-9.9-6.6-15.6-15.2-15.6c-11,0-18.2,8.2-18.2,18.4C29.3,143.2,35,150.3,45,150.3L45,150.3z M25.3,146.2
			c-1.6,0.4-3.5,0.6-5.3,0.6c-11,0-15.4-5.3-15.4-10.9c0-7.9,8.7-14.2,19.2-15.4l-0.7-3.8C6.9,119.6,0,129.2,0,136.7
			c0,4.2,3.9,13.6,19.5,13.6c2.7,0,4.9-0.2,6.2-0.5L25.3,146.2L25.3,146.2z"/>
		<path fill-rule="evenodd" clip-rule="evenodd" fill="none" stroke="#E53715" stroke-miterlimit="10" d="M305.7,148.4
			c9,0,16.3,7.3,16.3,16.3c0,9-7.3,16.3-16.3,16.3c-9,0-16.3-7.3-16.3-16.3C289.4,155.7,296.7,148.4,305.7,148.4L305.7,148.4z"/>
		<path fill="#E63712" d="M314.1,176.1h-3.5l-3.4-7.3c-0.3-0.6-0.5-1-0.8-1.4c-0.3-0.4-0.6-0.7-0.9-0.9c-0.3-0.2-0.7-0.4-1-0.5
			c-0.4-0.1-0.8-0.1-1.2-0.1h-1.5v10.2h-3.1v-22.8h6.1c1.3,0,2.5,0.1,3.4,0.4c1,0.3,1.7,0.7,2.4,1.2c0.6,0.5,1.1,1.2,1.3,1.9
			c0.3,0.7,0.4,1.6,0.4,2.5c0,0.7-0.1,1.4-0.3,2c-0.2,0.6-0.5,1.2-0.9,1.7c-0.4,0.5-0.9,1-1.5,1.3c-0.6,0.4-1.3,0.7-2.1,0.8
			c0.6,0.2,1.2,0.6,1.6,1.2c0.5,0.6,0.9,1.3,1.4,2.2L314.1,176.1L314.1,176.1z M309.1,159.5c0-1.2-0.4-2.1-1.1-2.7
			c-0.8-0.6-1.8-0.9-3.2-0.9h-2.9v7.6h2.5c0.7,0,1.4-0.1,2-0.3c0.6-0.2,1.1-0.4,1.5-0.8c0.4-0.3,0.7-0.7,1-1.2
			S309.1,160.1,309.1,159.5L309.1,159.5z"/>
	</g>
</g>
</svg>
