<?xml version="1.0" encoding="utf-8"?>
<!-- Generator: Adobe Illustrator 18.0.0, SVG Export Plug-In . SVG Version: 6.00 Build 0)  -->
<!DOCTYPE svg PUBLIC "-//W3C//DTD SVG 1.1//EN" "http://www.w3.org/Graphics/SVG/1.1/DTD/svg11.dtd">
<svg version="1.1" id="Camada_1" xmlns="http://www.w3.org/2000/svg" xmlns:xlink="http://www.w3.org/1999/xlink" x="0px" y="0px"
	 viewBox="0 0 84.1 255" enable-background="new 0 0 84.1 255" xml:space="preserve">
<g>
	<g>
		<path fill-rule="evenodd" clip-rule="evenodd" fill="#FF6600" d="M54.4,39.9c1.4,0,2.3-0.4,3.3-1.2c0.8-0.5,1.6-1.4,2.1-2.1
			l3.4-5.2c0.3-0.7,1-1,0.4-1.8c-0.7,0.3-0.2,0.2-0.7,0.8L60.6,33c-1.9,1.8-4.5,3.4-6.7,1c-0.5-0.5-0.5-0.3-0.8-1.1
			c-0.2-0.6-0.5-0.7-0.7-1.3c-0.1-0.4-0.1-0.9-0.3-1.5c-0.6-1.7-0.7-3.2-0.7-5.2c0-2.8-0.2-6.1,0.7-8.7c0.3-0.9,0.2-1.2,0.7-2
			c0.3-0.5,0.2-0.4,0.4-0.9c0.5-1.3,2.1-2.8,3.2-3.6c1-0.8,2.9-1.5,4.4-1.5c2.1,0,4.1,1.6,5,3.4c1.6,3.5,1.8,5.9,1.7,10.1
			c-0.1,2-0.6,4-0.9,6c-0.2,1.2-0.6,1.5-0.7,2.7l-1.1,4c-0.2,0.5-0.4,0.6-0.5,1.2C64,36,64,36.3,63.8,36.8c-0.2,0.4-0.4,0.7-0.5,1.2
			c-0.1,0.5-0.1,0.9-0.3,1.4c-1,2-1.6,4.1-2.4,6c-0.2,0.5-0.4,0.6-0.6,1.1l-2,5c-0.2,0.7-0.3,0.5-0.6,1.1l-3.6,8.3
			c-0.3,0.6-0.4,0.5-0.6,1.1c-0.2,0.6-0.1,0.8-0.4,1.3c-4.1,7.3-10.5,24.7-7.6,33.4c-3.1-4,18.7-32.5,24.5-41.1
			c0.9-1.3,1.9-2.8,2.7-4.3c0.3-0.6,0.4-0.6,0.6-1l1.9-3.4c0.2-0.5,0.4-0.7,0.6-1.1l6-13.3c0.2-0.5,0.2-0.8,0.3-1.3
			c0.5-1.6,0.4-0.8,0.8-2.7c0.1-0.7,0.3-0.8,0.5-1.4c0.1-0.3,1-5.9,1-6.2v-3.1c0-2.2-1.5-6.9-2.6-9c-0.2-0.4-0.4-0.5-0.7-1l-2.2-2.7
			c-0.4-0.4-0.5-0.5-0.9-0.8C77.3,4,77.4,4,76.9,3.7c-1.7-1-3.5-2.4-5.5-2.8c-1.1-0.2-1.5-0.6-2.7-0.7c-2.1-0.2-4.2-0.1-6.3-0.1
			c-1.6,0.1-4,1-5.2,1.5c-0.4,0.2-0.7,0.2-1.1,0.4l-2.6,1.6c-0.8,0.5-3.2,2.9-3.8,3.7C49.4,8,49,8.5,48.5,9.2
			c-2.6,3.5-3.6,8.5-3.3,13.3c0.1,2,0.1,4,0.8,5.8c0.3,1,0.2,1.5,0.7,2.5c0.6,1.1,0.8,2.4,1.5,3.4c0.5,0.9,1.4,2.3,2.1,3
			c0.6,0.6,1,1.2,1.6,1.8C52.6,39.6,53.1,39.9,54.4,39.9L54.4,39.9z"/>
		<path fill-rule="evenodd" clip-rule="evenodd" fill="#FF6600" d="M35.9,255c12.7-28.1,59.9-129.1,41.3-157.7
			c-5.8-8.8-12.2-6.7-18.6-11.5c-3.1-2.4-1.2-9,0.9-11.7c0.4-0.5,0.5-0.7,0.2-1.4c-0.6,0.1-1.6,1.5-2,2c-1.7,2-6,9-6.2,11.7
			c-0.1,1-0.2,2.7,0.3,3.6c4.7,7.1,16.2,2.3,21.4,17.9l1,5C76.9,145.5,47.5,216.2,35.9,255L35.9,255z"/>
		<path fill-rule="evenodd" clip-rule="evenodd" fill="#FF6600" d="M0,66.2c0.8,0.7,1.6,1.3,2.4,2.1l9.7,8.6c0.5,0.4,0.8,0.6,1.2,1
			l2,1.9c2.5,2.4,5.2,4.8,7.6,7.3c0.2,0.2,0.1,0.1,0.3,0.3l2.5,2.5c0.2,0.2,0.2,0.1,0.3,0.3l3.2,3.5l2.8,4.1l2.3,4.7
			c0.2,0.6,0.1,1.4,0.6,1.8c0.4-1.1,0.5-2.2,0-3.3c-0.4-1.1-0.5-2.5-0.8-3.2c-0.5-1-1.3-3.5-1.7-4.4l-1.3-2.5
			c-0.3-0.9-0.4-0.5-0.8-1.3l-5.1-7.1c-0.5-0.8-1-1.4-1.7-2.2l-0.9-1.2c-0.6-1.1-3.6-4.7-4.4-5.7c-1.3-1.6-6.8-8.4-7.1-9.2
			c0.7-0.4,1.4-1.4,2.1-2.1c2.2-2.3,10.2-10.3,12.3-11.9c1.2-1,2.3-2.2,3.5-3.1c0.9-0.7,1.5-1.3,2.3-1.9c0.8-0.7,1.6-1.3,2.5-1.9
			c2.4-1.9,5.7-4.4,8.7-4.5c2.5-0.1,4.9,0.5,6.8,2.1l2.4,2.1c0.2-0.4,0.1-0.7-0.1-1c-0.2-0.5-0.2-0.7-0.4-1.1
			c-0.2-0.5-0.4-0.4-0.6-0.9c-1.2-2.2-2.7-4-4.8-5.5c-0.4-0.3-0.4-0.4-0.9-0.6c-0.5-0.2-0.6-0.1-1.1-0.4c-3.4-1.6-7.4,2-10.3,3.7
			c-0.5,0.3-1.2,0.9-1.8,1.3l-3.4,2.5c-0.6,0.5-1.2,0.9-1.8,1.3L18.5,49c-1.7,1.2-6.7,5.6-7.9,6.8l-9.4,8.5C0.3,65.1,0.2,65,0,66.2
			L0,66.2z"/>
	</g>
</g>
</svg>
